<svg data-name="Capa 1" xmlns="http://www.w3.org/2000/svg" viewBox="0 0 1438 512"><path d="M843.07 490.78c-68.57-.47-115.18-45.18-160.26-88.42-10.23-9.82-20.81-20-31.27-29.15l-.26-.24c-1.89-1.76-2.68-1.76-3.52-1.76a12.13 12.13 0 00-2 .2c-38.71 7.87-63.47 12.64-80.64 12.65-12 0-29.12-2.08-38.18-20-5.74-11.37-7.46-26.78-10.07-50.12-2.62-23.5-6.21-55.68-15.82-97.66l-.08-.35-.06-.34c-4.25-25.31 6.49-40.32 31.94-44.63h.16c12.09-1.87 24.43-4.09 36.36-6.24 33.09-6 67.31-12.13 102.08-12.13 3 0 6 0 9 .14 8.07-.26 16.21-.35 24.09-.43 12-.13 24.36-.26 36.33-1H742.05c62.53 0 107.32 41.58 150.63 81.79 19.95 18.53 38.79 36 59.06 49.43l.94.62.81.78c10.65 10.36 17.15 22.59 19.33 36.38l11.93 5.33c25.72 11.48 52.32 23.35 78.33 35.47 36.58 15.66 47.9 51.59 42.89 80.3a73.29 73.29 0 01-20.45 39.63c-11.77 11.51-27.1 18.11-44.34 19.08h-.62zm191.56-58.94a9.25 9.25 0 001.14.08c3 0 3.74-1.79 3.93-2.86.32-1.89-.84-3.32-3.45-4.24l-.46-.17-.45-.2-34.84-15.65c-17-7.64-34.62-15.53-52-23.36-11.93 9.24-25.13 13.92-39.3 13.92a71.85 71.85 0 01-25.07-4.75c-32.66-11.36-126.07-55.78-139.94-99.18l-.45-1.41-.1-1.48a31.67 31.67 0 018.58-23.921 35.56 35.56 0 0125.89-11.09 32.5 32.5 0 0123.63 9.86c33.07 28.23 65.51 47.8 99 59.71-34.67-28.52-71.28-58.67-114.82-94.55l-.13-.11c-12.64-10.73-28.08-15.31-51.63-15.31-9.49 0-19.15.7-29.38 1.45S684 220.1 673.6 220.1c2.42 14.9 4.24 27.49 5.77 38.09 4.58 31.68 6.67 46.13 14.85 59.43 8.54 13.87 24.74 28.14 57 56.55q6.81 6 14.57 12.84c42 37.39 97.74 40.49 156 40.49 6.27 0 12.55 0 18.82-.08s12.6-.08 18.87-.08c24.4 0 50.39.55 75.15 4.5zm-448.81-119l34.77-6-13.83-80.75-34.76 5.66zm599.23 55.67c-63.3 0-109-42.49-153.17-83.59-20-18.58-38.86-36.14-59-49.67l-1.4-.93-1.11-1.32c-9.53-11.29-14.74-22-16.34-33.62-33.06-14.61-62.51-27.84-90-40.45-30-13.72-46.89-39.94-45.32-70.12v-.24c2.06-28.36 11.41-48.25 28.58-60.79C862 17 882.12 12 910.51 12c25.84 0 56 4 90.81 8.65 27.24 3.63 58.11 7.74 90.34 10.22 65.74 5.06 110.49 47.7 153.75 88.94 10.1 9.62 20.54 19.57 30.91 28.66l.16.14.16.15c1 .9 1.18.9 1.57.9a8.57 8.57 0 001.53-.17c38.75-8 64.37-13.31 82.12-13.31 11.82 0 28.56 2.09 37.47 20.11 5.59 11.32 7.34 26.75 10 50.12 2.69 23.83 6.38 56.48 16.11 99.31l.07.33.06.34c3.8 22.71-7.65 38.61-30.63 42.53l-.45.08-208.62 19.49zM1026.2 193.63c30 24.6 60.26 49.57 89.63 73.76l24.1 19.85c12.58 10.74 28.09 15.32 51.85 15.32 9.57 0 19.75-.74 29.59-1.46 10-.73 20.39-1.48 30.56-1.51-2.25-14.15-4-26.23-5.44-36.43-4.67-32.57-6.8-47.44-15.08-61-8.62-14.13-25-28.52-57.5-57.18q-6.64-5.87-14.21-12.54C1117.64 95.07 1062.08 92 1004.05 92q-9.74 0-19.49.09c-6.52 0-13 .08-19.53.08-24 0-49.62-.53-74.19-4.4a8.7 8.7 0 00-1.11-.07 3.76 3.76 0 00-4.13 3.3c-.24 1.26-.38 4.33 3.42 5.83l.3.11.29.14c21.64 9.88 43.73 19.8 65.09 29.4l22.57 10.14c11.66-9.35 24.73-14.09 38.89-14.09a76.88 76.88 0 0128 5.71c12.19 3.87 42 16.86 71.63 34.24 38.17 22.42 60.1 42.95 65.2 61a29.34 29.34 0 01-6.3 28.18l-.25.28-.27.27c-7.37 7.38-15.72 11.12-24.83 11.12-17.32 0-32.33-13.78-45.58-25.94-6.73-6.18-13.7-12.57-19.07-15.25l-.93-.46-.84-.61c-13.07-9.62-28.16-15.77-44.14-22.28-4.15-1.64-8.37-3.36-12.58-5.16zM1319.47 294l34.74-5.67-13.78-81.06-34.77 6z" fill="#fccd43"/><path d="M910.51 24c45.55 0 107.9 13.27 180.23 18.84 76.66 5.9 124.35 67.93 177.67 114.65a13.54 13.54 0 009.81 4.17 20.9 20.9 0 003.8-.38c38.79-8 63.61-13.1 79.84-13.1 44.81 0 24.24 38.6 51.86 160.2 2.73 16.35-4.3 25.89-20.82 28.71l-207.62 19.4h-.23c-85.75 0-139.37-86.85-205.51-131.22-7.09-8.4-12.36-17.37-13.69-28.09-.55-4.41-2.28-6.7-6.44-8.54q-45.33-20-90.4-40.61c-25.82-11.83-39.65-33.31-38.34-58.59C834.39 38.13 863.51 24 910.51 24m68 125.74a5.66 5.66 0 003.84-1.71c10.51-9.3 21.85-13.49 33.8-13.49a65 65 0 0124 5c26.9 8.33 155.77 69.75 125.51 104.21-5.38 5.39-10.85 7.59-16.33 7.59-20.61 0-41.47-31.05-59.32-39.93-19.8-14.57-43.39-21.66-65.5-31.65a12.88 12.88 0 00-6.85-2.17c-9.87 0-15 14.35-4.08 21.18q59.33 48.72 118.56 97.57c17.2 14.67 37.89 18.19 59.64 18.19 20 0 40.88-3 60.77-3 4.6 0 9.13.16 13.6.55-21.25-126.26-1.56-103-98.49-188.72C1122.74 83.55 1063.75 80 1004.05 80c-13 0-26.07.17-39 .17-24.88 0-49.36-.62-72.5-4.28a20.91 20.91 0 00-2.8-.19c-18.4 0-22.58 25.45-5.1 32.32 30 13.72 60.16 27.17 90.26 40.72a9 9 0 003.63 1m331.13 158l58.41-9.54c-6-35.08-11.82-69.53-17.81-104.82l-58.44 10c6 34.87 11.86 69.37 17.84 104.31m-567.6-144.52c85.09 0 137.25 85.69 203.07 129.23 8.63 8.38 14.22 18.46 15.94 30.26.69 4.7 2.83 6.66 6.77 8.42 30.18 13.49 60.4 26.89 90.36 40.85 58 24.67 44.33 112.57-17.68 116.07l-197.14-9.21c-79.39-.43-129.15-66.46-183.92-114.59-3.67-3.42-7.26-5-11.71-5a24 24 0 00-4.23.41c-37.75 7.68-62.21 12.44-78.39 12.44-46.08 0-24.94-38.62-52.37-158.5-3.16-18.75 3.25-27.62 22.1-30.81 45.43-7.05 90.49-18.23 136.6-18.23q4.5 0 9 .15c20.39-.69 40.85-.18 61.19-1.5h.4M673.6 208.1c-4.82 0-9.59-.17-14.29-.6 21.81 126.66 1.07 102.38 98.53 188.5 44.93 40 104.09 43.5 163.95 43.5 12.57 0 25.17-.16 37.68-.16 25.2 0 50 .63 73.43 4.38a22 22 0 002.87.2c17.74 0 22.76-23.94 4.49-30.41q-44.4-20-88.82-39.93a9.84 9.84 0 00-4-1.08 6.57 6.57 0 00-4.3 1.85c-10.48 8.79-21.93 13-33.94 13a59.87 59.87 0 01-21-4c-36.06-12.51-121-55.46-132.57-91.54-.86-13.35 10.82-22.25 22.49-22.25a20.61 20.61 0 0115.36 6.57c32.05 27.44 66.9 50.06 107.2 63.66a13.56 13.56 0 006.69 1.91c10.12 0 15.77-13.7 4.78-20.76q-59.31-48.78-118.56-97.62c-17.25-14.65-37.79-18.16-59.39-18.16-19.88 0-40.67 3-60.64 3M576 326.69l58.44-10.08c-6-35-11.89-69.42-17.86-104.31l-58.41 9.56c6 35.32 11.87 69.76 17.83 104.83M910.51 0c-31.06 0-53.4 5.75-70.31 18.1a75.07 75.07 0 00-23.84 29.32C811 58.86 807.87 72 806.74 87.71v.49c-1.84 35.28 17.71 65.8 52.3 81.65 25.94 11.89 53.63 24.35 84.44 38 2.8 11.3 8.65 22.14 17.75 32.92l2.17 2.57 2.8 1.88c19.37 13 37.91 30.24 57.54 48.49 21.92 20.39 44.59 41.48 70 57.75 30.48 19.55 60.36 29.05 91.36 29.05h1.38l1.08-.1L1395.13 361l.91-.09.9-.15c14.62-2.5 25.72-8.83 33-18.82 5.1-7 10.52-19.19 7.46-37.52l-.12-.68-.15-.67c-9.58-42.17-13.23-74.44-15.89-98-2.78-24.62-4.62-40.89-11.14-54.09a45.46 45.46 0 00-20.37-21c-7.66-3.88-16.77-5.77-27.85-5.77-18.34 0-43.29 5-80.51 12.73-9.18-8.17-18.19-16.75-27.67-25.79-21.51-20.5-43.76-41.7-69.14-58.67-30.11-20.12-60.19-31.1-92-33.54s-62.56-6.57-89.65-10.18C967.62 4.06 937.14 0 910.51 0zm65.32 122.82l-16.29-7.32c-8.71-3.91-17.54-7.87-26.41-11.87 10.81.42 21.5.52 31.9.52 6.54 0 13.18 0 19.6-.08s13-.09 19.42-.09c55.63 0 108.78 2.86 147.67 37.39 5.09 4.5 9.83 8.67 14.27 12.58 31.64 27.86 47.51 41.85 55.18 54.43 7 11.48 9 25.58 13.45 56.48 1 6.85 2.08 14.54 3.38 23.13-5.9.3-11.75.73-17.5 1.14-10.07.74-19.58 1.43-28.72 1.43-20.66 0-33.84-3.72-44.06-12.45l-.16-.13-.16-.13-3.37-2.78a46.16 46.16 0 005.3.3c8.53 0 21.24-2.54 33.32-14.64l.54-.54.51-.58c9.73-11.08 12.87-25.05 8.83-39.35-3.62-12.83-13-25.57-28.59-38.95-11-9.38-25.1-19.19-42.08-29.16-27.39-16.09-58.6-30.36-73.7-35.22a88.68 88.68 0 00-32-6.39 71.63 71.63 0 00-40.33 12.28zM1319.51 223l2.64-.46 8.47-1.45 9.73 57.3-11.06 1.8-3.71-21.7-6.07-35.49zm-577.44-83.83h-1.22l-.74.05c-11.65.76-23.33.88-35.69 1-7.81.08-15.89.17-24 .43-3-.09-6-.14-9-.14-35.84 0-70.6 6.26-104.21 12.32-11.86 2.13-24.13 4.34-36.07 6.2h-.33c-16.06 2.72-27.44 9-34.78 19.22s-9.69 23.13-7 39.23l.12.69.15.68c9.46 41.32 13 73.11 15.6 96.32 2.75 24.63 4.56 40.9 11.27 54.19a45.61 45.61 0 0020.76 21c7.72 3.81 16.92 5.67 28.14 5.67 18.22 0 42.51-4.67 80.2-12.32 9.67 8.58 19.15 17.68 29.16 27.28 22.39 21.47 45.53 43.67 72.06 60.91 31.52 20.48 63 30.57 96.18 30.85l196.74 9.25 1.23.06 1.24-.07c20.18-1.14 38.18-8.91 52-22.48a85.43 85.43 0 0023.88-46.14 87.91 87.91 0 00-7.29-53.28c-8.79-18-23.48-31.85-42.52-40.05-26-12.12-52.6-24-78.3-35.45l-6.34-2.83c-3.43-13.73-10.64-26-21.49-36.54l-1.61-1.57-1.88-1.24c-19.45-12.86-37.94-30-57.51-48.21-21.52-20-43.77-40.63-68.73-56.57-30-19.13-59.43-28.43-90.07-28.43zm-54.51 92.56c6.14-.3 12.22-.75 18.18-1.18 10-.73 19.45-1.42 28.5-1.42 20.46 0 33.58 3.72 43.86 12.46l.13.11.14.11 4.84 4a46.91 46.91 0 00-5.05-.27 47.61 47.61 0 00-34.65 14.88 43.52 43.52 0 00-11.79 32.9l.19 2.95.9 2.82c7 21.89 29 44 67.33 67.72 28.78 17.8 60.84 32.43 80 39.1a83.83 83.83 0 0029.14 5.46 74.74 74.74 0 0040.6-12.16c12.26 5.52 24.58 11.06 36.69 16.49-9.15-.27-18.22-.35-27.07-.35-6.32 0-12.74 0-18.94.08s-12.52.08-18.74.08c-55.85 0-109.19-2.86-148-37.42q-7.77-6.87-14.58-12.85c-31.38-27.62-47.13-41.48-54.73-53.83-6.54-10.64-8.5-22.4-13.19-54.86-1.06-7.28-2.24-15.49-3.67-24.74zm-101.68 9.91l11.06-1.81 5 29.23 4.79 28-3.35.58-7.75 1.36-3-17.47-6.78-39.84z" fill="#3b79ac"/><g><path d="M424.92 64.28c-9.82-1.67-19.6-3.63-29.46-4.93C334.64 51.34 278.05 30.61 224 2.26c-5.73-3-10.3-3-16.13 0-25.54 13.15-51.52 25.1-78.36 34.7-17.24 4.67-34.79 9.69-51.7 15-5.49 1.2-11 2.3-16.59 3.25-17.83 3-35.65 6.12-53.53 8.82C2 64.84-.36 67.06 0 73.15c.55 8.36.14 16.8.14 25.2h.61c.77 16.8 1.12 33.63 2.39 50.38 1.86 24.08 1.71 48.32 6.21 72.16 7.77 41.12 18.7 81.35 37.23 119q51.32 104.28 150.12 166c12.92 8.11 23.8 8.06 36.81.45 25.8-15.11 48.61-34 70-54.43 41.37-39.47 72-86.39 93.1-139.55A444.66 444.66 0 00427.27 172c1.83-33.28 2.45-66.62 3.92-99.92.22-5.08-1.88-7.08-6.27-7.8z" fill="#3977aa"/><path d="M379.78 105.62c-7.69-1.31-15.36-2.85-23.1-3.87C309 95.46 264.59 79.21 222.22 57c-4.49-2.36-8.08-2.37-12.65 0a508.6 508.6 0 01-61.46 27.21c-13.53 3.66-27.29 7.6-40.56 11.74-4.3.94-8.64 1.8-13 2.55-14 2.38-28 4.8-42 6.91-4.52.69-6.34 2.43-6 7.2.43 6.57.11 13.18.11 19.77h.45c.6 13.18.88 26.37 1.87 39.52 1.43 18.88 1.34 37.89 4.87 56.59 6.1 32.26 14.67 63.81 29.2 93.34Q123.26 403.6 200.77 452c10.14 6.35 18.68 6.31 28.88.34 20.24-11.85 38.13-26.65 54.94-42.69 32.45-31 56.5-67.76 73-109.46a349 349 0 0024-110.07c1.43-26.1 1.92-52.25 3.07-78.37.22-4.01-1.43-5.55-4.88-6.13z" fill="none" stroke="#fccd42" stroke-miterlimit="" stroke-width="32"/><path d="M208.79 159.05c26.83-.5 53.54.66 80 5.51a48.83 48.83 0 007.85.46c4 .08 8.84.26 10.24-4.05s-3.07-6.88-6.07-9.16c-12.08-9.15-26-13.17-41-14.37-3.25-.26-7.94.52-7.37-4.6.52-4.72 4.88-3.8 8.24-3.37 14.42 1.83 28.4 5.06 40.81 13.14 4.21 2.74 8.2 5.81 11.05 10 4.92 7.2 2.21 15.63-6 18.55-5.8 2.07-11.76 2-17.86 1.09-39.44-5.77-79-8.28-118.67-2.54a53.93 53.93 0 00-17.01 5.58c-4.7 2.45-8.44 5.77-8.53 11.34s3.69 9.15 8.12 11.68c9 5.15 18.61 8.39 29.17 8.07a31.33 31.33 0 017.06.32c1.78.36 3.47 1.57 3.33 3.82a3.54 3.54 0 01-3.59 3.46c-16.32 1.42-31.76-1.79-44.42-12.2-11.71-9.63-9.72-24.21 3.3-32.19 9.13-5.61 19.33-7.93 29.88-9 1.3-.12 2.62-.22 3.93-.28zm19.3 136.46c6.55-.19 13.11-.56 19.64-1.11 11.87-1 23.4-3.41 33.49-10.11 11.19-7.42 12.84-20.15 3.18-29.48-12.75-12.31-28.9-15.06-46-14a3.35 3.35 0 00-3.46 3.53c-.07 2.27 1.55 3.45 3.33 3.81a29.62 29.62 0 007.05.36c10.3-.43 19.66 2.71 28.49 7.58 4.73 2.61 8.6 6.15 8.55 12.21 0 5.84-4 8.7-8.51 11.25-8 4.48-16.8 6.18-25.63 6.9-32.52 2.66-65 2.53-97.4-2.14-9.69-1.4-19.57-4.39-29.61-1-8.4 2.86-11.57 10.4-7.18 18 2.14 3.72 5.36 6.42 8.77 8.92 12.43 9.11 26.8 12.7 41.73 14.8 3.85.55 9 2.3 9.87-2.85 1-5.91-4.85-4.9-8.46-5.07a73.32 73.32 0 01-34.22-10.46c-4.95-2.94-13.6-6.08-10.93-13.15 2.59-6.87 11.35-4.28 17.12-3.27 23.33 4.06 46.82 5.41 70.43 5.24 6.66.08 13.18.23 19.75.04zm-92.31-158.45c17.56-.77 35.21.34 52.82.48A42.63 42.63 0 01204 140c8 3.08 16 2 23.49-2.09 3.05-1.67 5.69-4.08 5.44-8s-2.38-6.59-6.16-8.25c-8.23-3.62-16.31-3-24.39.21-2.68 1.06-5.21 2.14-8.24 2.32-17.54 1-35.09 2-52.6 3.58-9.85.87-19.84 1.51-29.27 5.78a62.44 62.44 0 0023.51 3.51zm92-8c-6.25 5.4-17.35 6.06-26.78.86 8.76-2.08 17.54-4.76 26.76-.92zm87.39 194.84c-14.46-3.13-29.3-3.77-43.95-5.71-16.78-2.23-34.06 1.05-50.5-5.71-5.88-2.42-12.95-1.77-19.31.84-3.33 1.36-5.84 3.24-6.42 7.19-.63 4.37 1.54 7.2 4.87 9.08 5.29 3 11.13 5.06 17.19 3.41a111.71 111.71 0 0134.8-3.94c8.66.41 17.37.36 26 0 12.43-.49 24.85-1.43 37.28-2.18.03-.98.03-1.98.04-2.98zM200 322.3c8-5.79 18.09-5.61 27.2.3-9.2 4.74-17.96 3.56-27.2-.3zm10.36-121h15.72c4.53 0 11.19-8.31 10.45-12.79a3 3 0 00-3.23-2.71h-40.69c4.39 14.9 5.15 15.5 17.75 15.5zm18.37 50.75h-18.85c-11.3 0-14.43 2.76-16.45 15h42.93c.27-5.81-3.43-9.87-5.16-14.69-1.44-.2-1.95-.31-2.47-.31zm-25.11-37.55c-5.23-.13-5.49 2.46-4.11 6.73h30.07c.7-2.3 1-4.26-.59-6.68-8.26 0-16.82.15-25.37-.05zm26.32 16c0-2.49.82-4.55-.58-6.51h-29.72a6.7 6.7 0 000 6.51zm-.29-18.64c.81-3.44 1.23-6.08-3.41-6-7.84.15-15.69.08-23.53 0-4.51 0-4.37 2.46-3.2 6zm-26.49 27.76c7.62-.1 15.23-.11 22.84 0 5.14.08 4.45-2.78 3.59-6.24h-30c-1.45 3.89-1.24 6.29 3.57 6.23zm26.36 8.72c.15-5.73.15-5.73-4.67-5.9-25.3-.92-25.3-.92-25.56 5.9z" fill="#fccd42"/></g></svg>